<?xml version="1.0" standalone="no"?><!DOCTYPE svg PUBLIC "-//W3C//DTD SVG 1.1//EN" "http://www.w3.org/Graphics/SVG/1.1/DTD/svg11.dtd"><svg t="1714186320116" class="icon" viewBox="0 0 1024 1024" version="1.1" xmlns="http://www.w3.org/2000/svg" p-id="5592" xmlns:xlink="http://www.w3.org/1999/xlink" width="200" height="200"><path d="M813.056 979.712H217.344c-58.624 0-106.24-47.616-106.24-106.24V160.256c0-58.624 47.616-106.24 106.24-106.24h595.712c58.624 0 106.24 47.616 106.24 106.24v713.216c0 58.624-47.616 106.24-106.24 106.24zM217.344 115.456c-24.576 0-44.8 20.224-44.8 44.8v713.216c0 24.576 20.224 44.8 44.8 44.8h595.712c24.576 0 44.8-20.224 44.8-44.8V160.256c0-24.576-20.224-44.8-44.8-44.8H217.344z" fill="#060001" p-id="5593"></path><path d="M709.376 428.544c-11.264 0-22.272-4.352-30.72-12.544l-58.624-57.856c-0.512-0.512-1.28-1.024-2.304-1.024-0.768 0-1.536 0.256-2.304 1.024L562.176 412.16c-12.544 12.8-31.232 16.384-47.616 9.728-16.384-6.656-27.136-22.528-27.136-40.448V96.256c0-16.896 13.824-30.72 30.72-30.72s30.72 13.824 30.72 30.72v242.176l23.296-23.552c12.032-12.288 28.416-19.2 45.568-19.2 17.152-0.256 33.536 6.4 45.824 18.688l28.416 27.904V91.136c0-16.896 13.824-30.72 30.72-30.72s30.72 13.824 30.72 30.72v293.632c0 17.664-10.496 33.536-26.88 40.448-5.888 2.048-11.52 3.328-17.152 3.328zM721.152 569.344H281.344c-16.896 0-30.72-13.824-30.72-30.72s13.824-30.72 30.72-30.72h439.808c16.896 0 30.72 13.824 30.72 30.72s-13.824 30.72-30.72 30.72zM590.592 696.064H281.344c-16.896 0-30.72-13.824-30.72-30.72s13.824-30.72 30.72-30.72h309.248c16.896 0 30.72 13.824 30.72 30.72s-13.824 30.72-30.72 30.72zM485.632 822.784h-204.288c-16.896 0-30.72-13.824-30.72-30.72s13.824-30.72 30.72-30.72h204.288c16.896 0 30.72 13.824 30.72 30.72s-13.824 30.72-30.72 30.72z" fill="#060001" p-id="5594"></path></svg>